<mxfile host="app.diagrams.net" modified="2024-06-07T15:35:24.346Z" agent="Mozilla/5.0 (Windows NT 10.0; Win64; x64) AppleWebKit/537.36 (KHTML, like Gecko) Chrome/125.0.0.0 Safari/537.36" etag="WBkWqQkoNox-lf_TNZ0j" version="24.5.2" type="device">
  <diagram name="Seite-1" id="v_yLVwPUsKrrMHZfPo5-">
    <mxGraphModel dx="891" dy="815" grid="1" gridSize="10" guides="1" tooltips="1" connect="1" arrows="1" fold="1" page="1" pageScale="1" pageWidth="1169" pageHeight="827" math="0" shadow="0">
      <root>
        <mxCell id="0" />
        <mxCell id="1" parent="0" />
        <mxCell id="Ds-LmJXHlrZ_r8F9GdPR-1" value="" style="rounded=1;whiteSpace=wrap;html=1;strokeColor=#E07A5F;fontColor=#393C56;fillColor=#F2CC8F;" vertex="1" parent="1">
          <mxGeometry x="40" y="40" width="180" height="30" as="geometry" />
        </mxCell>
        <mxCell id="Ds-LmJXHlrZ_r8F9GdPR-2" value="Main Activity" style="text;strokeColor=none;align=center;fillColor=none;html=1;verticalAlign=middle;whiteSpace=wrap;rounded=0;fontColor=#393C56;" vertex="1" parent="1">
          <mxGeometry x="55" y="40" width="150" height="30" as="geometry" />
        </mxCell>
        <mxCell id="Ds-LmJXHlrZ_r8F9GdPR-3" value="" style="rounded=1;whiteSpace=wrap;html=1;strokeColor=#82b366;fillColor=#d5e8d4;" vertex="1" parent="1">
          <mxGeometry x="40" y="390" width="180" height="70" as="geometry" />
        </mxCell>
        <mxCell id="Ds-LmJXHlrZ_r8F9GdPR-5" value="&lt;div style=&quot;&quot;&gt;&lt;span style=&quot;background-color: initial;&quot;&gt;Toolbar&lt;/span&gt;&lt;/div&gt;&lt;div&gt;&lt;ul&gt;&lt;li&gt;Display Title&lt;/li&gt;&lt;li&gt;Options Menu&lt;/li&gt;&lt;/ul&gt;&lt;/div&gt;" style="text;strokeColor=none;align=left;fillColor=none;html=1;verticalAlign=middle;whiteSpace=wrap;rounded=0;fontColor=#393C56;" vertex="1" parent="1">
          <mxGeometry x="50" y="400" width="160" height="60" as="geometry" />
        </mxCell>
        <mxCell id="Ds-LmJXHlrZ_r8F9GdPR-6" value="" style="rounded=1;whiteSpace=wrap;html=1;strokeColor=#9673a6;fillColor=#e1d5e7;" vertex="1" parent="1">
          <mxGeometry x="40" y="540" width="180" height="90" as="geometry" />
        </mxCell>
        <mxCell id="Ds-LmJXHlrZ_r8F9GdPR-7" value="&lt;div style=&quot;&quot;&gt;&lt;span style=&quot;background-color: initial;&quot;&gt;Options Menu:&lt;/span&gt;&lt;/div&gt;&lt;div&gt;&lt;ul&gt;&lt;li&gt;&lt;span style=&quot;background-color: initial;&quot;&gt;Change Title&lt;/span&gt;&lt;/li&gt;&lt;li&gt;&lt;span style=&quot;background-color: initial;&quot;&gt;Change Background&lt;/span&gt;&lt;br&gt;&lt;/li&gt;&lt;li&gt;&lt;span style=&quot;background-color: initial;&quot;&gt;About&lt;/span&gt;&lt;/li&gt;&lt;/ul&gt;&lt;/div&gt;" style="text;strokeColor=none;align=left;fillColor=none;html=1;verticalAlign=middle;whiteSpace=wrap;rounded=0;fontColor=#393C56;" vertex="1" parent="1">
          <mxGeometry x="50" y="545" width="160" height="90" as="geometry" />
        </mxCell>
        <mxCell id="Ds-LmJXHlrZ_r8F9GdPR-8" value="" style="rounded=1;whiteSpace=wrap;html=1;strokeColor=#82b366;fillColor=#d5e8d4;" vertex="1" parent="1">
          <mxGeometry x="40" y="260" width="180" height="50" as="geometry" />
        </mxCell>
        <mxCell id="Ds-LmJXHlrZ_r8F9GdPR-9" value="&lt;div style=&quot;&quot;&gt;&lt;span style=&quot;background-color: initial;&quot;&gt;Add Button&lt;/span&gt;&lt;/div&gt;&lt;div&gt;&lt;ul&gt;&lt;li&gt;Add new List&lt;/li&gt;&lt;/ul&gt;&lt;/div&gt;" style="text;strokeColor=none;align=left;fillColor=none;html=1;verticalAlign=middle;whiteSpace=wrap;rounded=0;fontColor=#393C56;" vertex="1" parent="1">
          <mxGeometry x="50" y="260" width="160" height="60" as="geometry" />
        </mxCell>
        <mxCell id="Ds-LmJXHlrZ_r8F9GdPR-10" value="" style="rounded=1;whiteSpace=wrap;html=1;strokeColor=#82b366;fillColor=#d5e8d4;" vertex="1" parent="1">
          <mxGeometry x="40" y="140" width="180" height="60" as="geometry" />
        </mxCell>
        <mxCell id="Ds-LmJXHlrZ_r8F9GdPR-11" value="&lt;div style=&quot;&quot;&gt;&lt;span style=&quot;background-color: initial;&quot;&gt;Recycler View&amp;nbsp;&lt;/span&gt;&lt;span style=&quot;background-color: initial;&quot;&gt;(Main List)&lt;/span&gt;&lt;/div&gt;&lt;div&gt;&lt;ul&gt;&lt;li&gt;List of Lists&lt;/li&gt;&lt;/ul&gt;&lt;/div&gt;" style="text;strokeColor=none;align=left;fillColor=none;html=1;verticalAlign=middle;whiteSpace=wrap;rounded=0;fontColor=#393C56;" vertex="1" parent="1">
          <mxGeometry x="50" y="150" width="160" height="50" as="geometry" />
        </mxCell>
        <mxCell id="Ds-LmJXHlrZ_r8F9GdPR-13" value="" style="rounded=1;whiteSpace=wrap;html=1;strokeColor=#b85450;fillColor=#f8cecc;" vertex="1" parent="1">
          <mxGeometry x="280" y="140" width="180" height="30" as="geometry" />
        </mxCell>
        <mxCell id="Ds-LmJXHlrZ_r8F9GdPR-14" value="Adapter" style="text;strokeColor=none;align=center;fillColor=none;html=1;verticalAlign=middle;whiteSpace=wrap;rounded=0;fontColor=#393C56;" vertex="1" parent="1">
          <mxGeometry x="295" y="140" width="150" height="30" as="geometry" />
        </mxCell>
        <mxCell id="Ds-LmJXHlrZ_r8F9GdPR-15" value="" style="rounded=1;whiteSpace=wrap;html=1;strokeColor=#b85450;fillColor=#f8cecc;" vertex="1" parent="1">
          <mxGeometry x="280" y="200" width="180" height="50" as="geometry" />
        </mxCell>
        <mxCell id="Ds-LmJXHlrZ_r8F9GdPR-16" value="Main Adapter&lt;div&gt;Handles Main List&lt;/div&gt;" style="text;strokeColor=none;align=center;fillColor=none;html=1;verticalAlign=middle;whiteSpace=wrap;rounded=0;fontColor=#393C56;" vertex="1" parent="1">
          <mxGeometry x="295" y="210" width="150" height="30" as="geometry" />
        </mxCell>
        <mxCell id="Ds-LmJXHlrZ_r8F9GdPR-17" value="" style="rounded=1;whiteSpace=wrap;html=1;strokeColor=#b85450;fillColor=#f8cecc;" vertex="1" parent="1">
          <mxGeometry x="280" y="270" width="180" height="30" as="geometry" />
        </mxCell>
        <mxCell id="Ds-LmJXHlrZ_r8F9GdPR-18" value="Datamodels" style="text;strokeColor=none;align=center;fillColor=none;html=1;verticalAlign=middle;whiteSpace=wrap;rounded=0;fontColor=#393C56;" vertex="1" parent="1">
          <mxGeometry x="295" y="270" width="150" height="30" as="geometry" />
        </mxCell>
        <mxCell id="Ds-LmJXHlrZ_r8F9GdPR-19" value="" style="rounded=1;whiteSpace=wrap;html=1;strokeColor=#b85450;fillColor=#f8cecc;" vertex="1" parent="1">
          <mxGeometry x="280" y="340" width="180" height="70" as="geometry" />
        </mxCell>
        <mxCell id="Ds-LmJXHlrZ_r8F9GdPR-20" value="Maind Data&lt;div&gt;&lt;ul&gt;&lt;li&gt;Title&lt;/li&gt;&lt;li&gt;Delete Icon&lt;/li&gt;&lt;/ul&gt;&lt;/div&gt;" style="text;strokeColor=none;align=left;fillColor=none;html=1;verticalAlign=middle;whiteSpace=wrap;rounded=0;fontColor=#393C56;" vertex="1" parent="1">
          <mxGeometry x="295" y="340" width="155" height="85" as="geometry" />
        </mxCell>
      </root>
    </mxGraphModel>
  </diagram>
</mxfile>
